<svg width="850" height="117" viewBox="0 0 850 117" fill="none" xmlns="http://www.w3.org/2000/svg">
  <g class="squares">
    <rect x="40.0251" y="40.0603" width="27.6317" height="27.6317" fill="#E10600"/>
    <rect x="40.0251" y="0.27771" width="27.6317" height="27.6317" fill="#E10600"/>
    <rect y="0.27771" width="27.6317" height="27.6317" fill="#E10600"/>
  </g>
  <g class="dayus">
    <path d="M186.349 0.417358C190.485 0.468952 196.672 0.918786 202.754 2.11951C209.215 3.39522 215.667 5.5386 219.368 9.03943C228.516 17.6923 231.168 30.7611 231.168 56.4623C231.168 69.3313 230.441 79.6234 228.609 87.8031C226.777 95.9874 223.833 102.09 219.378 106.544C214.919 111.003 208.874 113.459 203.066 114.804C197.254 116.15 191.632 116.394 187.975 116.394H77.8301V88.7103H175.604C177.222 88.7103 179.922 88.4727 182.714 87.7562C185.514 87.0376 188.35 85.8518 190.298 83.9965C192.719 81.6904 194.155 77.5886 194.971 72.6039C195.783 67.6425 195.965 61.9145 195.965 56.4623C195.965 51.0067 195.782 46.2602 194.975 42.3422C194.168 38.4286 192.748 35.3955 190.317 33.3119C185.387 29.086 179.765 29.4027 175.604 29.4027H112.306V73.7006H77.8301V0.412476H185.549L186.349 0.417358Z" fill="#09264D"/>
    <path fill-rule="evenodd" clip-rule="evenodd" d="M342.864 0.676147L404.771 116.394H365.564L357.63 101.214H281.01L273.039 116.394H234.696L296.169 0.678101L296.311 0.412476H342.723L342.864 0.676147ZM293.771 76.9105H344.927L319.408 28.0883L293.771 76.9105Z" fill="#09264D"/>
    <path d="M463.729 116.394H430.392V75.6197L367.373 0.412476L409.529 0.678101L448.243 48.7345L486.313 0.678101H528.039L463.729 75.6197V116.394Z" fill="#09264D"/>
    <path d="M576.416 0.870483V69.4408C576.416 75.332 576.907 80.0778 580.507 83.6781C584.107 87.2785 589.353 88.9154 595.236 88.9154H632.876C638.759 88.9154 644.004 87.2784 647.604 83.6781C651.205 80.0778 651.696 75.3322 651.696 69.4408V0.870483H686.063V75.4955C686.063 88.7513 684.647 99.0755 676.407 106.753C669.207 113.463 662.006 116.245 650.387 116.245H577.726C566.106 116.245 558.905 113.463 551.704 106.753C543.465 99.0756 542.049 88.7512 542.049 75.4955V0.870483H576.416Z" fill="#09264D"/>
    <path d="M712.826 61.6523C705.921 54.7479 705.163 42.2544 705.239 36.0075C705.239 29.3307 705.892 15.542 712.01 9.14571C718.687 2.16543 725.217 0.139893 735.232 0.139893C745.247 0.139893 800.713 0.512097 809.363 0.512097C818.012 0.512097 827.909 1.22686 835.041 6.68968C841.14 11.3613 844.237 18.896 844.237 25.8405V39.8011H810.095C810.095 37.131 809.468 34.4819 806.311 31.3256C803.155 28.1693 797.901 28.4202 793.251 28.4202H752.946C747.028 28.4202 739.837 29.1608 739.837 38.0241C739.837 46.8873 744.731 47.8487 755.151 47.8487C767.291 47.8487 795.072 48.1471 810.095 48.1471C825.117 48.1471 835.664 50.3474 841.809 56.4931C847.955 62.6388 849.093 68.1775 849.093 81.2276C849.093 94.2776 846.362 99.7405 838.471 107.631C832.158 113.944 821.02 115.977 812.523 115.977H733.919C728 115.977 719.579 114.384 712.826 107.631C704.935 99.7404 705.213 86.3616 705.239 79.1031H739.837C739.988 80.7723 740.098 83.6087 741.859 85.7209C743.282 87.429 746.876 88.8148 752.946 88.8148H803.774C811.361 88.8148 814.799 85.0212 814.799 79.1031C814.799 73.1851 811.057 70.0986 803.774 70.0986C796.49 70.0986 745.299 70.3019 737.864 70.3019C730.428 70.3019 719.73 68.5567 712.826 61.6523Z" fill="#09264D"/>
  </g>
</svg>
